PathFileType	4	(X/Y/Z)	/home/nbianco/repos/AddBiomechanics/server/engine/../data/Rajagopal2015/processed//results/MarkerData/walk.trc
DataRate	CameraRate	NumFrames	NumMarkers	Units	OrigDataRate	OrigDataStartFrame	OrigNumFrames
100	100	5	41	m	100	0	238
Frame#	Time	L.ASIS			L.Ankle			L.Biceps			L.Clavicle			L.Elbow			L.Forearm			L.Heel			L.Knee			L.MT5			L.PSIS			L.SH1			L.SH2			L.SH3			L.Shoulder			L.TH1			L.TH2			L.TH3			L.TH4			L.Toe			L.Wrist			R.ASIS			R.Ankle			R.Biceps			R.Clavicle			R.Elbow			R.Forearm			R.Heel			R.Knee			R.MT5			R.PSIS			R.SH1			R.SH2			R.SH3			R.SH4			R.Shoulder			R.TH1			R.TH2			R.TH3			R.Toe			R.Wrist			S2		
		X1	Y1	Z1	X2	Y2	Z2	X3	Y3	Z3	X4	Y4	Z4	X5	Y5	Z5	X6	Y6	Z6	X7	Y7	Z7	X8	Y8	Z8	X9	Y9	Z9	X10	Y10	Z10	X11	Y11	Z11	X12	Y12	Z12	X13	Y13	Z13	X14	Y14	Z14	X15	Y15	Z15	X16	Y16	Z16	X17	Y17	Z17	X18	Y18	Z18	X19	Y19	Z19	X20	Y20	Z20	X21	Y21	Z21	X22	Y22	Z22	X23	Y23	Z23	X24	Y24	Z24	X25	Y25	Z25	X26	Y26	Z26	X27	Y27	Z27	X28	Y28	Z28	X29	Y29	Z29	X30	Y30	Z30	X31	Y31	Z31	X32	Y32	Z32	X33	Y33	Z33	X34	Y34	Z34	X35	Y35	Z35	X36	Y36	Z36	X37	Y37	Z37	X38	Y38	Z38	X39	Y39	Z39	X40	Y40	Z40	X41	Y41	Z41

1	0	-0.55301	1.02162	-0.382124	-0.608576	0.108075	-0.342466	-0.617122	1.3104	-0.525797	-0.577323	1.48764	-0.2865	-0.643072	1.1909	-0.558922	-0.56757	1.06997	-0.563527	-0.704067	0.0357196	-0.304777	-0.559937	0.528404	-0.37245	-0.504448	0.0380164	-0.358714	-0.767768	1.0188	-0.313735	-0.534363	0.416148	-0.351714	-0.618968	0.430979	-0.396784	-0.638729	0.316416	-0.385886	-0.629162	1.53495	-0.437334	-0.496435	0.808054	-0.403383	-0.487427	0.679858	-0.372484	-0.585163	0.79776	-0.461131	-0.594478	0.668732	-0.419394	-0.412723	0.0570717	-0.251124	-0.522138	0.963958	-0.552776	-0.566974	1.0211	-0.129953	-0.838269	0.272836	-0.13219	-0.627658	1.26757	-0.0139884	-0.583241	1.48744	-0.236925	-0.680024	1.18135	0.019638	-0.592087	1.06029	0.0344978	-0.921997	0.285044	-0.210097	-0.535761	0.532885	-0.0723885	-0.856612	0.137699	-0.079366	-0.772731	1.01588	-0.222517	-0.583884	0.458458	-0.068587	-0.66559	0.386276	-0.0773003	-0.639323	0.51768	-0.0907027	-0.728919	0.438983	-0.105496	-0.652641	1.52955	-0.0945211	-0.558978	0.799295	-0.0444513	-0.658033	0.755665	-0.0558058	-0.610406	0.63474	-0.0703268	-0.750385	0.056067	-0.140944	-0.54427	0.947571	0.0413793	-0.781212	0.994564	-0.26822
2	0.01	-0.542007	1.02274	-0.38311	-0.608245	0.108272	-0.342543	-0.602057	1.3132	-0.525666	-0.565152	1.48963	-0.286282	-0.625939	1.19325	-0.558855	-0.54823	1.07373	-0.562393	-0.70345	0.0356036	-0.304526	-0.557553	0.528344	-0.373206	-0.504419	0.0379751	-0.358758	-0.755963	1.02098	-0.313428	-0.532526	0.416392	-0.352981	-0.61761	0.431641	-0.396691	-0.63819	0.317414	-0.385692	-0.616599	1.53741	-0.436867	-0.487107	0.807431	-0.404476	-0.480674	0.679299	-0.373368	-0.577318	0.798548	-0.461623	-0.58825	0.669502	-0.419806	-0.412523	0.0567602	-0.251206	-0.50049	0.968622	-0.55057	-0.554561	1.02374	-0.131101	-0.807987	0.266658	-0.13094	-0.61787	1.26943	-0.0135743	-0.571186	1.48945	-0.236789	-0.670871	1.18332	0.019629	-0.583493	1.06177	0.0354509	-0.893155	0.274389	-0.208053	-0.514048	0.537581	-0.0728654	-0.819415	0.131431	-0.0767377	-0.760553	1.01781	-0.222259	-0.559677	0.460973	-0.0688381	-0.639568	0.385757	-0.0771287	-0.617168	0.5185	-0.0907582	-0.703897	0.436881	-0.105189	-0.641057	1.53122	-0.0946791	-0.542513	0.804099	-0.0447905	-0.639899	0.757762	-0.0545947	-0.590974	0.638324	-0.0685893	-0.710008	0.0540965	-0.138758	-0.536391	0.949135	0.0429033	-0.769368	0.996641	-0.268023
3	0.02	-0.531001	1.02351	-0.384205	-0.607888	0.108464	-0.342421	-0.587264	1.31573	-0.525709	-0.553113	1.49128	-0.285919	-0.609062	1.19542	-0.558817	-0.528935	1.07734	-0.561055	-0.70328	0.0358383	-0.304389	-0.554972	0.528343	-0.373855	-0.504364	0.0379218	-0.358699	-0.744478	1.02295	-0.313106	-0.530932	0.416277	-0.354155	-0.616531	0.432273	-0.396382	-0.637873	0.318228	-0.385233	-0.604023	1.53972	-0.43648	-0.478675	0.806606	-0.405429	-0.474149	0.678459	-0.374	-0.569216	0.798788	-0.461871	-0.582228	0.670109	-0.420032	-0.412362	0.0564713	-0.251248	-0.478931	0.973377	-0.548324	-0.542784	1.02608	-0.132235	-0.777143	0.259446	-0.129385	-0.60822	1.27104	-0.0129704	-0.559356	1.49091	-0.236601	-0.661656	1.18507	0.0196497	-0.574759	1.06321	0.0365562	-0.863646	0.262214	-0.205691	-0.493233	0.542509	-0.0734196	-0.780846	0.124172	-0.0743353	-0.748548	1.0194	-0.221874	-0.53583	0.463519	-0.0691823	-0.613567	0.385035	-0.0769781	-0.595883	0.519374	-0.0911152	-0.679411	0.434512	-0.104838	-0.629317	1.5326	-0.0947894	-0.526057	0.808664	-0.0451243	-0.622371	0.760256	-0.0532988	-0.571819	0.641883	-0.066952	-0.66817	0.0523783	-0.137156	-0.528405	0.950448	0.044626	-0.757681	0.998439	-0.267708
4	0.03	-0.519983	1.02407	-0.385322	-0.607551	0.108732	-0.342155	-0.572563	1.31801	-0.52578	-0.54096	1.49266	-0.285627	-0.592399	1.19736	-0.558824	-0.5097	1.0808	-0.559649	-0.703341	0.0361977	-0.304227	-0.552235	0.528322	-0.374268	-0.504271	0.0378947	-0.358565	-0.733054	1.02455	-0.31263	-0.529307	0.416066	-0.355072	-0.615383	0.432751	-0.395996	-0.637336	0.318847	-0.384626	-0.591471	1.54176	-0.436151	-0.470835	0.805438	-0.406149	-0.467926	0.677291	-0.374364	-0.560878	0.798549	-0.461983	-0.576339	0.670646	-0.420052	-0.412246	0.0561457	-0.251295	-0.45762	0.978176	-0.545926	-0.530814	1.02815	-0.13342	-0.745644	0.251257	-0.127617	-0.598531	1.27232	-0.0123587	-0.547298	1.49225	-0.236364	-0.652656	1.18676	0.0196999	-0.566082	1.06449	0.0377453	-0.833442	0.248649	-0.202925	-0.472279	0.546703	-0.0741789	-0.740909	0.116163	-0.072181	-0.736965	1.02084	-0.221413	-0.512498	0.465958	-0.0696525	-0.587843	0.384078	-0.0767853	-0.575027	0.519573	-0.0917485	-0.65515	0.431557	-0.104393	-0.617542	1.53379	-0.0948641	-0.509333	0.813219	-0.0457117	-0.605221	0.762923	-0.0520386	-0.553011	0.645471	-0.0654681	-0.62494	0.0509793	-0.136228	-0.520359	0.951524	0.0464509	-0.746182	0.999968	-0.267194
5	0.04	-0.508945	1.02435	-0.38647	-0.607251	0.109003	-0.341814	-0.557939	1.31997	-0.525832	-0.528654	1.49383	-0.285409	-0.575934	1.19906	-0.558872	-0.490731	1.08417	-0.558249	-0.703401	0.0366538	-0.303992	-0.549263	0.528157	-0.374452	-0.504192	0.0379761	-0.358417	-0.721705	1.0258	-0.311995	-0.527525	0.415831	-0.355578	-0.613857	0.433131	-0.395668	-0.636431	0.31931	-0.384004	-0.578916	1.54344	-0.435853	-0.462966	0.804138	-0.406661	-0.461646	0.676038	-0.374482	-0.552849	0.798308	-0.46205	-0.570364	0.671123	-0.419904	-0.412064	0.0557639	-0.251291	-0.436456	0.982988	-0.543369	-0.518866	1.03007	-0.134551	-0.713375	0.242308	-0.125686	-0.588709	1.27326	-0.0117987	-0.535164	1.49333	-0.236099	-0.64361	1.18821	0.0197896	-0.557504	1.06552	0.0390108	-0.802428	0.234016	-0.199803	-0.451508	0.550384	-0.0751533	-0.699669	0.107652	-0.0702049	-0.725579	1.02202	-0.22091	-0.48961	0.468059	-0.0702042	-0.562378	0.382585	-0.0764798	-0.554009	0.518789	-0.0925182	-0.630874	0.427657	-0.103765	-0.605812	1.53472	-0.0949061	-0.493278	0.817471	-0.0462024	-0.588272	0.765436	-0.0508053	-0.534267	0.64878	-0.0642444	-0.58069	0.0500175	-0.13578	-0.51216	0.952455	0.048426	-0.734775	1.00115	-0.266585
